<!DOCTYPE svg PUBLIC "-//W3C//DTD SVG 1.1//EN" "http://www.w3.org/Graphics/SVG/1.1/DTD/svg11.dtd"> <svg width="521px" height="521px" version="1.1" baseProfile="full" xmlns="http://www.w3.org/2000/svg" xmlns:xlink="http://www.w3.org/1999/xlink" xmlns:ev="http://www.w3.org/2001/xml-events"><polygon fill="rgb(246,133,27)" stroke="rgb(246,133,27)" points="324.8765910118818,87.90423631668091 289.1234089881182,87.90423631668091 274.8250639587641,52.4018440246582"></polygon><polygon fill="rgb(246,133,27)" stroke="rgb(246,133,27)" points="274.8250639587641,52.4018440246582 339.1749360412359,52.4018440246582 324.8765910118818,87.90423631668091"></polygon><polygon fill="rgb(228,118,27)" stroke="rgb(228,118,27)" points="289.1234089881182,87.90423631668091 198.3541683256626,19.59364128112793 274.8250639587641,52.4018440246582"></polygon><polygon fill="rgb(226,118,27)" stroke="rgb(226,118,27)" points="415.6458316743374,19.59364128112793 324.8765910118818,87.90423631668091 339.1749360412359,52.4018440246582"></polygon><polygon fill="rgb(118,61,22)" stroke="rgb(118,61,22)" points="235.56601616740227,115.74536144733429 194.7705928683281,105.62478280067444 192.4713522195816,96.02392339706421"></polygon><polygon fill="rgb(118,61,22)" stroke="rgb(118,61,22)" points="378.43398383259773,115.74536144733429 421.5286477804184,96.02392339706421 419.2294071316719,105.62478280067444"></polygon><polygon fill="rgb(118,61,22)" stroke="rgb(118,61,22)" points="202.1691207587719,133.70039755105972 235.56601616740227,115.74536144733429 253.1623682975769,119.35145998001099"></polygon><polygon fill="rgb(118,61,22)" stroke="rgb(118,61,22)" points="411.8308792412281,133.70039755105972 360.8376317024231,119.35145998001099 378.43398383259773,115.74536144733429"></polygon><polygon fill="rgb(118,61,22)" stroke="rgb(118,61,22)" points="196.2959022819996,117.15328216552734 235.56601616740227,115.74536144733429 202.1691207587719,133.70039755105972"></polygon><polygon fill="rgb(118,61,22)" stroke="rgb(118,61,22)" points="196.2959022819996,117.15328216552734 194.7705928683281,105.62478280067444 235.56601616740227,115.74536144733429"></polygon><polygon fill="rgb(118,61,22)" stroke="rgb(118,61,22)" points="417.7040977180004,117.15328216552734 411.8308792412281,133.70039755105972 378.43398383259773,115.74536144733429"></polygon><polygon fill="rgb(118,61,22)" stroke="rgb(118,61,22)" points="417.7040977180004,117.15328216552734 378.43398383259773,115.74536144733429 419.2294071316719,105.62478280067444"></polygon><polygon fill="rgb(118,61,22)" stroke="rgb(118,61,22)" points="237.1228495389223,64.51222944259644 235.56601616740227,115.74536144733429 192.4713522195816,96.02392339706421"></polygon><polygon fill="rgb(118,61,22)" stroke="rgb(118,61,22)" points="253.1623682975769,119.35145998001099 235.56601616740227,115.74536144733429 237.1228495389223,64.51222944259644"></polygon><polygon fill="rgb(118,61,22)" stroke="rgb(118,61,22)" points="421.5286477804184,96.02392339706421 378.43398383259773,115.74536144733429 376.8771504610777,64.51222944259644"></polygon><polygon fill="rgb(118,61,22)" stroke="rgb(118,61,22)" points="376.8771504610777,64.51222944259644 378.43398383259773,115.74536144733429 360.8376317024231,119.35145998001099"></polygon><polygon fill="rgb(228,118,27)" stroke="rgb(228,118,27)" points="254.87843173742294,224.73955726623535 198.25057065486908,244.0547513961792 183.76912957429886,187.9051866531372"></polygon><polygon fill="rgb(228,118,27)" stroke="rgb(228,118,27)" points="430.23087042570114,187.9051866531372 415.7494293451309,244.0547513961792 359.12156826257706,224.73955726623535"></polygon><polygon fill="rgb(118,61,22)" stroke="rgb(118,61,22)" points="237.1228495389223,64.51222944259644 289.1234089881182,87.90423631668091 253.1623682975769,119.35145998001099"></polygon><polygon fill="rgb(118,61,22)" stroke="rgb(118,61,22)" points="360.8376317024231,119.35145998001099 324.8765910118818,87.90423631668091 376.8771504610777,64.51222944259644"></polygon><polygon fill="rgb(118,61,22)" stroke="rgb(118,61,22)" points="187.20170477032661,99.59209489822388 192.4713522195816,96.02392339706421 194.7705928683281,105.62478280067444"></polygon><polygon fill="rgb(118,61,22)" stroke="rgb(118,61,22)" points="426.7982952296734,99.59209489822388 419.2294071316719,105.62478280067444 421.5286477804184,96.02392339706421"></polygon><polygon fill="rgb(246,133,27)" stroke="rgb(246,133,27)" points="237.57359044253826,138.80230921506882 183.76912957429886,187.9051866531372 202.1691207587719,133.70039755105972"></polygon><polygon fill="rgb(246,133,27)" stroke="rgb(246,133,27)" points="376.42640955746174,138.80230921506882 411.8308792412281,133.70039755105972 430.23087042570114,187.9051866531372"></polygon><polygon fill="rgb(118,61,22)" stroke="rgb(118,61,22)" points="196.2959022819996,117.15328216552734 188.8017640709877,109.94353127479553 194.7705928683281,105.62478280067444"></polygon><polygon fill="rgb(118,61,22)" stroke="rgb(118,61,22)" points="417.7040977180004,117.15328216552734 419.2294071316719,105.62478280067444 425.1982359290123,109.94353127479553"></polygon><polygon fill="rgb(246,133,27)" stroke="rgb(246,133,27)" points="229.41636949777603,183.25777649879456 183.76912957429886,187.9051866531372 237.57359044253826,138.80230921506882"></polygon><polygon fill="rgb(246,133,27)" stroke="rgb(246,133,27)" points="376.42640955746174,138.80230921506882 430.23087042570114,187.9051866531372 384.58363050222397,183.25777649879456"></polygon><polygon fill="rgb(228,118,27)" stroke="rgb(228,118,27)" points="183.76912957429886,187.9051866531372 229.41636949777603,183.25777649879456 254.87843173742294,224.73955726623535"></polygon><polygon fill="rgb(228,118,27)" stroke="rgb(228,118,27)" points="359.12156826257706,224.73955726623535 384.58363050222397,183.25777649879456 430.23087042570114,187.9051866531372"></polygon><polygon fill="rgb(118,61,22)" stroke="rgb(118,61,22)" points="202.1691207587719,133.70039755105972 191.41363674402237,120.43948447704315 196.2959022819996,117.15328216552734"></polygon><polygon fill="rgb(118,61,22)" stroke="rgb(118,61,22)" points="411.8308792412281,133.70039755105972 417.7040977180004,117.15328216552734 422.58636325597763,120.43948447704315"></polygon><polygon fill="rgb(118,61,22)" stroke="rgb(118,61,22)" points="192.4713522195816,96.02392339706421 185.46012389659882,56.307143688201904 237.1228495389223,64.51222944259644"></polygon><polygon fill="rgb(118,61,22)" stroke="rgb(118,61,22)" points="376.8771504610777,64.51222944259644 428.5398761034012,56.307143688201904 421.5286477804184,96.02392339706421"></polygon><polygon fill="rgb(246,133,27)" stroke="rgb(246,133,27)" points="202.1691207587719,133.70039755105972 253.1623682975769,119.35145998001099 237.57359044253826,138.80230921506882"></polygon><polygon fill="rgb(246,133,27)" stroke="rgb(246,133,27)" points="411.8308792412281,133.70039755105972 376.42640955746174,138.80230921506882 360.8376317024231,119.35145998001099"></polygon><polygon fill="rgb(228,118,27)" stroke="rgb(228,118,27)" points="253.1623682975769,119.35145998001099 289.1234089881182,87.90423631668091 292.1652376130223,139.73612844944"></polygon><polygon fill="rgb(228,118,27)" stroke="rgb(228,118,27)" points="292.1652376130223,139.73612844944 237.57359044253826,138.80230921506882 253.1623682975769,119.35145998001099"></polygon><polygon fill="rgb(228,118,27)" stroke="rgb(228,118,27)" points="360.8376317024231,119.35145998001099 376.42640955746174,138.80230921506882 321.8347623869777,139.73612844944"></polygon><polygon fill="rgb(228,118,27)" stroke="rgb(228,118,27)" points="321.8347623869777,139.73612844944 324.8765910118818,87.90423631668091 360.8376317024231,119.35145998001099"></polygon><polygon fill="rgb(118,61,22)" stroke="rgb(118,61,22)" points="198.3541683256626,19.59364128112793 289.1234089881182,87.90423631668091 237.1228495389223,64.51222944259644"></polygon><polygon fill="rgb(118,61,22)" stroke="rgb(118,61,22)" points="415.6458316743374,19.59364128112793 428.5398761034012,56.307143688201904 376.8771504610777,64.51222944259644"></polygon><polygon fill="rgb(118,61,22)" stroke="rgb(118,61,22)" points="237.1228495389223,64.51222944259644 185.46012389659882,56.307143688201904 198.3541683256626,19.59364128112793"></polygon><polygon fill="rgb(118,61,22)" stroke="rgb(118,61,22)" points="376.8771504610777,64.51222944259644 324.8765910118818,87.90423631668091 415.6458316743374,19.59364128112793"></polygon><polygon fill="rgb(246,133,27)" stroke="rgb(246,133,27)" points="289.1234089881182,87.90423631668091 324.8765910118818,87.90423631668091 321.8347623869777,139.73612844944"></polygon><polygon fill="rgb(246,133,27)" stroke="rgb(246,133,27)" points="321.8347623869777,139.73612844944 292.1652376130223,139.73612844944 289.1234089881182,87.90423631668091"></polygon><polygon fill="rgb(205,97,22)" stroke="rgb(205,97,22)" points="254.87843173742294,224.73955726623535 229.41636949777603,183.25777649879456 259.98772832751274,182.3560780286789"></polygon><polygon fill="rgb(205,97,22)" stroke="rgb(205,97,22)" points="359.12156826257706,224.73955726623535 354.01227167248726,182.3560780286789 384.58363050222397,183.25777649879456"></polygon><polygon fill="rgb(205,97,22)" stroke="rgb(205,97,22)" points="259.4092630147934,160.28271839022636 237.57359044253826,138.80230921506882 292.1652376130223,139.73612844944"></polygon><polygon fill="rgb(205,97,22)" stroke="rgb(205,97,22)" points="321.8347623869777,139.73612844944 376.42640955746174,138.80230921506882 354.5907369852066,160.28271839022636"></polygon><polygon fill="rgb(246,133,27)" stroke="rgb(246,133,27)" points="237.57359044253826,138.80230921506882 259.98772832751274,182.3560780286789 229.41636949777603,183.25777649879456"></polygon><polygon fill="rgb(246,133,27)" stroke="rgb(246,133,27)" points="384.58363050222397,183.25777649879456 354.01227167248726,182.3560780286789 376.42640955746174,138.80230921506882"></polygon><polygon fill="rgb(228,117,31)" stroke="rgb(228,117,31)" points="237.57359044253826,138.80230921506882 259.4092630147934,160.28271839022636 259.98772832751274,182.3560780286789"></polygon><polygon fill="rgb(228,117,31)" stroke="rgb(228,117,31)" points="376.42640955746174,138.80230921506882 354.01227167248726,182.3560780286789 354.5907369852066,160.28271839022636"></polygon><polygon fill="rgb(192,173,158)" stroke="rgb(192,173,158)" points="265.70113575458527,231.73308897018433 254.87843173742294,224.73955726623535 286.1040007546544,230.73261260986328"></polygon><polygon fill="rgb(192,173,158)" stroke="rgb(192,173,158)" points="327.8959992453456,230.73261260986328 359.12156826257706,224.73955726623535 348.29886424541473,231.73308897018433"></polygon><polygon fill="rgb(215,193,179)" stroke="rgb(215,193,179)" points="285.8904535025358,219.46000123023987 286.1040007546544,230.73261260986328 254.87843173742294,224.73955726623535"></polygon><polygon fill="rgb(215,193,179)" stroke="rgb(215,193,179)" points="328.1095464974642,219.46000123023987 359.12156826257706,224.73955726623535 327.8959992453456,230.73261260986328"></polygon><polygon fill="rgb(228,118,27)" stroke="rgb(228,118,27)" points="288.59644858911633,196.9447124004364 254.87843173742294,224.73955726623535 259.98772832751274,182.3560780286789"></polygon><polygon fill="rgb(228,118,27)" stroke="rgb(228,118,27)" points="325.40355141088367,196.9447124004364 354.01227167248726,182.3560780286789 359.12156826257706,224.73955726623535"></polygon><polygon fill="rgb(215,193,179)" stroke="rgb(215,193,179)" points="254.87843173742294,224.73955726623535 288.59644858911633,196.9447124004364 285.8904535025358,219.46000123023987"></polygon><polygon fill="rgb(215,193,179)" stroke="rgb(215,193,179)" points="359.12156826257706,224.73955726623535 328.1095464974642,219.46000123023987 325.40355141088367,196.9447124004364"></polygon><polygon fill="rgb(205,97,22)" stroke="rgb(205,97,22)" points="292.1652376130223,139.73612844944 278.96873519569635,151.21468982473016 259.4092630147934,160.28271839022636"></polygon><polygon fill="rgb(205,97,22)" stroke="rgb(205,97,22)" points="354.5907369852066,160.28271839022636 335.03126480430365,151.21468982473016 321.8347623869777,139.73612844944"></polygon><polygon fill="rgb(246,133,27)" stroke="rgb(246,133,27)" points="259.98772832751274,182.3560780286789 259.4092630147934,160.28271839022636 287.0104620754719,167.4130586385727"></polygon><polygon fill="rgb(246,133,27)" stroke="rgb(246,133,27)" points="354.01227167248726,182.3560780286789 326.9895379245281,167.4130586385727 354.5907369852066,160.28271839022636"></polygon><polygon fill="rgb(35,52,71)" stroke="rgb(35,52,71)" points="287.0104620754719,167.4130586385727 259.4092630147934,160.28271839022636 278.96873519569635,151.21468982473016"></polygon><polygon fill="rgb(35,52,71)" stroke="rgb(35,52,71)" points="326.9895379245281,167.4130586385727 335.03126480430365,151.21468982473016 354.5907369852066,160.28271839022636"></polygon><polygon fill="rgb(205,97,22)" stroke="rgb(205,97,22)" points="278.96873519569635,151.21468982473016 292.1652376130223,139.73612844944 287.0104620754719,167.4130586385727"></polygon><polygon fill="rgb(205,97,22)" stroke="rgb(205,97,22)" points="335.03126480430365,151.21468982473016 326.9895379245281,167.4130586385727 321.8347623869777,139.73612844944"></polygon><polygon fill="rgb(246,133,27)" stroke="rgb(246,133,27)" points="293.3576069585979,156.1000760346651 292.1652376130223,139.73612844944 321.8347623869777,139.73612844944"></polygon><polygon fill="rgb(246,133,27)" stroke="rgb(246,133,27)" points="321.8347623869777,139.73612844944 320.6423930414021,156.1000760346651 293.3576069585979,156.1000760346651"></polygon><polygon fill="rgb(228,117,31)" stroke="rgb(228,117,31)" points="287.0104620754719,167.4130586385727 292.1652376130223,139.73612844944 293.3576069585979,156.1000760346651"></polygon><polygon fill="rgb(226,118,27)" stroke="rgb(226,118,27)" points="326.9895379245281,167.4130586385727 320.6423930414021,156.1000760346651 321.8347623869777,139.73612844944"></polygon><polygon fill="rgb(192,173,158)" stroke="rgb(192,173,158)" points="286.1040007546544,230.73261260986328 287.9329209700227,240.0224952697754 265.70113575458527,231.73308897018433"></polygon><polygon fill="rgb(192,173,158)" stroke="rgb(192,173,158)" points="348.29886424541473,231.73308897018433 326.0670790299773,240.0224952697754 327.8959992453456,230.73261260986328"></polygon><polygon fill="rgb(246,133,27)" stroke="rgb(246,133,27)" points="288.59644858911633,196.9447124004364 259.98772832751274,182.3560780286789 287.0104620754719,167.4130586385727"></polygon><polygon fill="rgb(246,133,27)" stroke="rgb(246,133,27)" points="326.9895379245281,167.4130586385727 354.01227167248726,182.3560780286789 325.40355141088367,196.9447124004364"></polygon><polygon fill="rgb(228,117,31)" stroke="rgb(228,117,31)" points="293.3576069585979,156.1000760346651 293.34514673799276,193.63643336296082 287.0104620754719,167.4130586385727"></polygon><polygon fill="rgb(228,117,31)" stroke="rgb(228,117,31)" points="320.6423930414021,156.1000760346651 326.9895379245281,167.4130586385727 320.65485326200724,193.63643336296082"></polygon><polygon fill="rgb(246,133,27)" stroke="rgb(246,133,27)" points="287.0104620754719,167.4130586385727 293.34514673799276,193.63643336296082 288.59644858911633,196.9447124004364"></polygon><polygon fill="rgb(246,133,27)" stroke="rgb(246,133,27)" points="325.40355141088367,196.9447124004364 320.65485326200724,193.63643336296082 326.9895379245281,167.4130586385727"></polygon><polygon fill="rgb(246,133,27)" stroke="rgb(246,133,27)" points="293.3576069585979,156.1000760346651 320.6423930414021,156.1000760346651 320.65485326200724,193.63643336296082"></polygon><polygon fill="rgb(246,133,27)" stroke="rgb(246,133,27)" points="320.65485326200724,193.63643336296082 293.34514673799276,193.63643336296082 293.3576069585979,156.1000760346651"></polygon><polygon fill="rgb(192,173,158)" stroke="rgb(192,173,158)" points="287.9329209700227,240.0224952697754 286.1040007546544,230.73261260986328 285.8904535025358,219.46000123023987"></polygon><polygon fill="rgb(192,173,158)" stroke="rgb(192,173,158)" points="328.1095464974642,219.46000123023987 327.8959992453456,230.73261260986328 326.0670790299773,240.0224952697754"></polygon><polygon fill="rgb(192,173,158)" stroke="rgb(192,173,158)" points="285.8904535025358,219.46000123023987 288.34064980968833,216.31247210502625 287.9329209700227,240.0224952697754"></polygon><polygon fill="rgb(192,173,158)" stroke="rgb(192,173,158)" points="287.9329209700227,240.0224952697754 288.34064980968833,216.31247210502625 325.65935019031167,216.31247210502625"></polygon><polygon fill="rgb(192,173,158)" stroke="rgb(192,173,158)" points="325.65935019031167,216.31247210502625 326.0670790299773,240.0224952697754 287.9329209700227,240.0224952697754"></polygon><polygon fill="rgb(192,173,158)" stroke="rgb(192,173,158)" points="326.0670790299773,240.0224952697754 325.65935019031167,216.31247210502625 328.1095464974642,219.46000123023987"></polygon><polygon fill="rgb(22,22,22)" stroke="rgb(22,22,22)" points="288.34064980968833,216.31247210502625 285.8904535025358,219.46000123023987 288.59644858911633,196.9447124004364"></polygon><polygon fill="rgb(22,22,22)" stroke="rgb(22,22,22)" points="325.40355141088367,196.9447124004364 328.1095464974642,219.46000123023987 325.65935019031167,216.31247210502625"></polygon><polygon fill="rgb(22,22,22)" stroke="rgb(22,22,22)" points="293.08589409291744,196.43888878822327 293.34514673799276,193.63643336296082 320.65485326200724,193.63643336296082"></polygon><polygon fill="rgb(22,22,22)" stroke="rgb(22,22,22)" points="320.65485326200724,193.63643336296082 320.91410590708256,196.43888878822327 293.08589409291744,196.43888878822327"></polygon><polygon fill="rgb(22,22,22)" stroke="rgb(22,22,22)" points="288.59644858911633,196.9447124004364 293.34514673799276,193.63643336296082 293.08589409291744,196.43888878822327"></polygon><polygon fill="rgb(22,22,22)" stroke="rgb(22,22,22)" points="320.91410590708256,196.43888878822327 320.65485326200724,193.63643336296082 325.40355141088367,196.9447124004364"></polygon><polygon fill="rgb(22,22,22)" stroke="rgb(22,22,22)" points="288.59644858911633,196.9447124004364 290.0473866686225,199.86935877799988 288.34064980968833,216.31247210502625"></polygon><polygon fill="rgb(22,22,22)" stroke="rgb(22,22,22)" points="293.08589409291744,196.43888878822327 290.0473866686225,199.86935877799988 288.59644858911633,196.9447124004364"></polygon><polygon fill="rgb(22,22,22)" stroke="rgb(22,22,22)" points="325.65935019031167,216.31247210502625 323.9526133313775,199.86935877799988 325.40355141088367,196.9447124004364"></polygon><polygon fill="rgb(22,22,22)" stroke="rgb(22,22,22)" points="325.40355141088367,196.9447124004364 323.9526133313775,199.86935877799988 320.91410590708256,196.43888878822327"></polygon><polygon fill="rgb(22,22,22)" stroke="rgb(22,22,22)" points="290.0473866686225,199.86935877799988 323.9526133313775,199.86935877799988 325.65935019031167,216.31247210502625"></polygon><polygon fill="rgb(22,22,22)" stroke="rgb(22,22,22)" points="325.65935019031167,216.31247210502625 288.34064980968833,216.31247210502625 290.0473866686225,199.86935877799988"></polygon><polygon fill="rgb(22,22,22)" stroke="rgb(22,22,22)" points="320.91410590708256,196.43888878822327 323.9526133313775,199.86935877799988 290.0473866686225,199.86935877799988"></polygon><polygon fill="rgb(22,22,22)" stroke="rgb(22,22,22)" points="290.0473866686225,199.86935877799988 293.08589409291744,196.43888878822327 320.91410590708256,196.43888878822327"></polygon></svg>